<svg width="113" height="196" viewBox="0 0 113 196" fill="none" xmlns="http://www.w3.org/2000/svg">
<g clip-path="url(#clip0_28_556)">
<path d="M21.7572 171.007C17.4523 171.008 13.2438 169.731 9.66415 167.336C6.08446 164.941 3.29436 161.537 1.64682 157.554C-0.000719112 153.571 -0.43168 149.188 0.408426 144.959C1.24853 140.731 3.32196 136.847 6.36646 133.799L133.601 6.37602C137.683 2.28811 143.218 -0.00874323 148.99 -0.00923149C154.762 -0.00971975 160.298 2.28625 164.38 6.37348C168.462 10.4607 170.755 16.0044 170.756 21.7851C170.756 27.5658 168.464 33.1099 164.383 37.1978L37.1479 164.626C35.1306 166.655 32.7318 168.264 30.0901 169.359C27.4485 170.454 24.6163 171.014 21.7572 171.007ZM148.992 3.9643C146.655 3.95696 144.34 4.41355 142.18 5.30764C140.021 6.20173 138.06 7.5156 136.41 9.17333L9.16998 136.612C7.51769 138.267 6.20707 140.232 5.31299 142.394C4.4189 144.557 3.95886 146.874 3.9591 149.215C3.95934 151.555 4.41989 153.872 5.31442 156.035C6.20895 158.197 7.51995 160.161 9.17259 161.816C12.5102 165.158 17.0368 167.035 21.7564 167.035C24.0934 167.034 26.4074 166.573 28.5663 165.677C30.7253 164.781 32.6869 163.468 34.3392 161.813L161.574 34.3902C164.062 31.8973 165.756 28.7217 166.442 25.265C167.128 21.8082 166.776 18.2254 165.429 14.9691C164.083 11.7129 161.802 8.92958 158.877 6.97081C155.951 5.01204 152.511 3.96578 148.992 3.9643Z" fill="#323232"/>
<path d="M23.8527 196.005C19.6802 196.005 15.6015 194.766 12.1322 192.445C8.66292 190.123 5.95896 186.823 4.36223 182.963C2.7655 179.102 2.34771 174.854 3.16171 170.756C3.9757 166.657 5.98494 162.893 8.93529 159.938L136.17 32.5095C140.128 28.5459 145.496 26.3192 151.093 26.3192C156.69 26.3192 162.058 28.5459 166.015 32.5095C169.973 36.4731 172.197 41.8489 172.197 47.4543C172.197 53.0596 169.973 58.4354 166.015 62.3989L38.7753 189.822C36.8172 191.786 34.4908 193.344 31.93 194.405C29.3691 195.466 26.6241 196.01 23.8527 196.005ZM151.082 28.9779C148.658 28.9737 146.257 29.4491 144.016 30.377C141.776 31.3049 139.74 32.6669 138.027 34.3848L10.8026 161.808C7.36466 165.28 5.44022 169.974 5.45043 174.864C5.46064 179.754 7.40469 184.44 10.8571 187.898C14.3094 191.355 18.9889 193.302 23.8713 193.312C28.7537 193.322 33.4412 191.395 36.908 187.952L37.8391 188.885L36.908 187.952L164.143 60.5236C166.726 57.939 168.484 54.645 169.197 51.0587C169.909 47.4725 169.543 43.7553 168.144 40.3776C166.746 36.9999 164.378 34.1136 161.341 32.0843C158.304 30.055 154.733 28.974 151.082 28.9779Z" fill="#F79623"/>
</g>
<defs>
<clipPath id="clip0_28_556">
<rect width="174" height="196" fill="white"/>
</clipPath>
</defs>
</svg>
