<svg width="108" height="196" viewBox="0 0 108 196" fill="none" xmlns="http://www.w3.org/2000/svg">
<g clip-path="url(#clip0_28_553)">
<path d="M-44.2428 171.007C-48.5477 171.008 -52.7562 169.731 -56.3359 167.336C-59.9155 164.941 -62.7056 161.537 -64.3532 157.554C-66.0007 153.571 -66.4317 149.188 -65.5916 144.959C-64.7515 140.731 -62.678 136.847 -59.6335 133.799L67.6013 6.37601C71.6825 2.28809 77.2181 -0.00875849 82.9902 -0.00924675C88.7624 -0.00973501 94.2983 2.28624 98.3802 6.37346C102.462 10.4607 104.755 16.0044 104.756 21.7851C104.756 27.5658 102.464 33.1099 98.3828 37.1978L-28.8521 164.626C-30.8694 166.655 -33.2682 168.264 -35.9099 169.359C-38.5515 170.454 -41.3837 171.014 -44.2428 171.007ZM82.9921 3.96429C80.6552 3.95695 78.3401 4.41353 76.1805 5.30762C74.0209 6.20171 72.0596 7.51558 70.41 9.17331L-56.83 136.612C-58.4823 138.267 -59.7929 140.232 -60.687 142.394C-61.5811 144.557 -62.0411 146.874 -62.0409 149.215C-62.0407 151.555 -61.5801 153.872 -60.6856 156.035C-59.7911 158.197 -58.48 160.161 -56.8274 161.816C-53.4898 165.158 -48.9632 167.035 -44.2436 167.035C-41.9066 167.034 -39.5926 166.573 -37.4337 165.677C-35.2747 164.781 -33.3131 163.468 -31.6608 161.813L95.5741 34.3902C98.0618 31.8973 99.7558 28.7217 100.442 25.265C101.128 21.8082 100.776 18.2253 99.4291 14.9691C98.0825 11.7129 95.8024 8.92956 92.8767 6.9708C89.9511 5.01203 86.5113 3.96577 82.9921 3.96429Z" fill="#323232"/>
<path d="M-42.1473 196.005C-46.3198 196.005 -50.3985 194.766 -53.8678 192.445C-57.3371 190.123 -60.041 186.823 -61.6378 182.963C-63.2345 179.102 -63.6523 174.854 -62.8383 170.756C-62.0243 166.657 -60.0151 162.893 -57.0647 159.938L70.1702 32.5095C74.1279 28.5459 79.4957 26.3192 85.0928 26.3192C90.6898 26.3192 96.0576 28.5459 100.015 32.5095C103.973 36.4731 106.197 41.8489 106.197 47.4543C106.197 53.0596 103.973 58.4354 100.015 62.3989L-27.2247 189.822C-29.1828 191.786 -31.5092 193.344 -34.07 194.405C-36.6309 195.466 -39.3759 196.01 -42.1473 196.005ZM85.0824 28.9779C82.6579 28.9737 80.2565 29.4491 78.0161 30.377C75.7757 31.3049 73.7404 32.6669 72.027 34.3848L-55.1974 161.808C-58.6353 165.28 -60.5598 169.974 -60.5496 174.864C-60.5394 179.754 -58.5953 184.44 -55.1429 187.898C-51.6906 191.355 -47.0111 193.302 -42.1287 193.312C-37.2463 193.322 -32.5588 191.395 -29.092 187.952L-28.1609 188.885L-29.092 187.952L98.1429 60.5236C100.726 57.939 102.484 54.645 103.197 51.0587C103.909 47.4725 103.543 43.7553 102.144 40.3776C100.746 36.9999 98.3781 34.1136 95.3409 32.0843C92.3037 30.055 88.7335 28.974 85.0824 28.9779Z" fill="#F79623"/>
</g>
<defs>
<clipPath id="clip0_28_553">
<rect width="174" height="196" fill="white" transform="translate(-66)"/>
</clipPath>
</defs>
</svg>
