<svg width="45" height="45" viewBox="0 0 45 45" fill="none" xmlns="http://www.w3.org/2000/svg">
<g clip-path="url(#clip0_28_207)">
<path d="M22.1767 40.0624C21.9542 41.0485 21.3498 41.9062 20.496 42.4474C19.6422 42.9886 18.6087 43.1693 17.6219 42.9498C16.6371 42.7249 15.7811 42.1201 15.2403 41.2669C14.6995 40.4138 14.5177 39.3815 14.7345 38.395L22.3438 4.44906C22.5663 3.46295 23.1708 2.60533 24.0246 2.0641C24.8784 1.52286 25.9119 1.34217 26.8987 1.56169C27.8848 1.78421 28.7424 2.38859 29.2837 3.24239C29.8249 4.0962 30.0055 5.12976 29.786 6.11653L22.1767 40.0624Z" fill="#323232"/>
<path d="M40.0723 22.3157C41.0584 22.5382 41.916 23.1426 42.4573 23.9964C42.9985 24.8502 43.1792 25.8837 42.9596 26.8705C42.7371 27.8566 42.1327 28.7142 41.2789 29.2555C40.4251 29.7967 39.3916 29.9774 38.4048 29.7579L4.45747 22.1553C3.47337 21.9293 2.61817 21.3242 2.07757 20.4714C1.53696 19.6186 1.3546 18.5869 1.57011 17.6005C1.79612 16.6164 2.40124 15.7612 3.25405 15.2206C4.10685 14.68 5.13849 14.4976 6.12495 14.7131L40.0723 22.3157Z" fill="#323232"/>
</g>
<defs>
<clipPath id="clip0_28_207">
<rect width="32.2496" height="32.2496" fill="white" transform="translate(0 17.2664) rotate(-32.3711)"/>
</clipPath>
</defs>
</svg>
