<svg width="45" height="46" viewBox="0 0 45 46" fill="none" xmlns="http://www.w3.org/2000/svg">
<g clip-path="url(#clip0_28_204)">
<path d="M22.3086 40.8281C22.086 41.8142 21.4816 42.6718 20.6278 43.213C19.774 43.7542 18.7405 43.9349 17.7537 43.7154C16.769 43.4906 15.9129 42.8857 15.3721 42.0326C14.8313 41.1794 14.6495 40.1471 14.8664 39.1606L22.4757 5.21468C22.6982 4.22858 23.3026 3.37096 24.1564 2.82972C25.0102 2.28849 26.0437 2.1078 27.0305 2.32732C28.0166 2.54983 28.8743 3.15422 29.4155 4.00802C29.9567 4.86182 30.1374 5.89538 29.9179 6.88216L22.3086 40.8281Z" fill="#F79623"/>
<path d="M40.2041 23.0813C41.1902 23.3038 42.0479 23.9082 42.5891 24.762C43.1303 25.6158 43.311 26.6493 43.0915 27.6361C42.869 28.6222 42.2645 29.4798 41.4107 30.0211C40.5569 30.5623 39.5234 30.743 38.5366 30.5235L4.58931 22.9209C3.60521 22.6949 2.75001 22.0898 2.2094 21.237C1.6688 20.3842 1.48644 19.3525 1.70194 18.3661C1.92796 17.382 2.53307 16.5268 3.38588 15.9862C4.23869 15.4456 5.27033 15.2632 6.25678 15.4787L40.2041 23.0813Z" fill="#F79623"/>
</g>
<defs>
<clipPath id="clip0_28_204">
<rect width="32.2496" height="32.2496" fill="white" transform="translate(0.131836 18.032) rotate(-32.3711)"/>
</clipPath>
</defs>
</svg>
