<svg width="25" height="25" viewBox="0 0 25 25" fill="none" xmlns="http://www.w3.org/2000/svg">
<g clip-path="url(#clip0_13_5812)">
<path d="M19.5 3.5H18.5V1.5H16.5V3.5H8.5V1.5H6.5V3.5H5.5C4.39 3.5 3.5 4.4 3.5 5.5V19.5C3.5 20.6 4.39 21.5 5.5 21.5H19.5C20.6 21.5 21.5 20.6 21.5 19.5V5.5C21.5 4.4 20.6 3.5 19.5 3.5ZM12.5 6.5C14.16 6.5 15.5 7.84 15.5 9.5C15.5 11.16 14.16 12.5 12.5 12.5C10.84 12.5 9.5 11.16 9.5 9.5C9.5 7.84 10.84 6.5 12.5 6.5ZM18.5 18.5H6.5V17.5C6.5 15.5 10.5 14.4 12.5 14.4C14.5 14.4 18.5 15.5 18.5 17.5V18.5Z" fill="#323232"/>
</g>
<defs>
<clipPath id="clip0_13_5812">
<rect width="24" height="24" fill="white" transform="translate(0.5 0.5)"/>
</clipPath>
</defs>
</svg>
