<svg width="64" height="64" viewBox="0 0 64 64" fill="none" xmlns="http://www.w3.org/2000/svg">
<g clip-path="url(#clip0_17_98)">
<path d="M6.74665 52.3999L10.32 53.8933V29.8133L3.83998 45.4399C2.74665 48.1599 4.05331 51.2799 6.74665 52.3999V52.3999ZM58.7466 42.5333L45.52 10.6133C44.6933 8.61325 42.7466 7.38659 40.6933 7.33325C40 7.33325 39.28 7.43992 38.5866 7.73325L18.9333 15.8666C16.9333 16.6933 15.7066 18.6133 15.6533 20.6666C15.6266 21.3866 15.76 22.1066 16.0533 22.7999L29.28 54.7199C30.1066 56.7466 32.08 57.9733 34.16 57.9999C34.8533 57.9999 35.5466 57.8666 36.2133 57.5999L55.84 49.4666C58.56 48.3466 59.8666 45.2266 58.7466 42.5333V42.5333ZM21.0133 23.3333C19.5466 23.3333 18.3466 22.1333 18.3466 20.6666C18.3466 19.1999 19.5466 17.9999 21.0133 17.9999C22.48 17.9999 23.68 19.1999 23.68 20.6666C23.68 22.1333 22.48 23.3333 21.0133 23.3333V23.3333ZM15.68 52.6666C15.68 55.5999 18.08 57.9999 21.0133 57.9999H24.88L15.68 35.7599V52.6666Z" fill="white"/>
</g>
<defs>
<clipPath id="clip0_17_98">
<rect width="64" height="64" fill="white"/>
</clipPath>
</defs>
</svg>
