<svg width="169" height="55" viewBox="0 0 169 55" fill="none" xmlns="http://www.w3.org/2000/svg">
<path d="M82.5287 2.25549e-06C77.2486 2.25549e-06 72.087 1.56209 67.6967 4.48872C63.3064 7.41535 59.8846 11.5751 57.864 16.4419C55.8434 21.3087 55.3147 26.664 56.3448 31.8306C57.3749 36.9972 59.9175 41.743 63.6511 45.4679C67.3848 49.1928 72.1417 51.7295 77.3204 52.7572C82.4991 53.7849 87.867 53.2574 92.7452 51.2415C97.6234 49.2256 101.793 45.8118 104.726 41.4318C107.66 37.0518 109.226 31.9023 109.226 26.6345C109.227 23.1364 108.538 19.6723 107.196 16.4402C105.855 13.2081 103.889 10.2714 101.41 7.79784C98.9302 5.32432 95.9866 3.36249 92.7469 2.0245C89.5072 0.6865 86.035 -0.00143759 82.5287 2.25549e-06ZM102.779 36.1554L102.131 37.9851C101.942 38.5701 101.703 39.1382 101.418 39.6833C101.215 39.9858 101.046 40.309 100.912 40.6474C100.779 40.9719 100.609 41.2806 100.407 41.5677C98.0601 45.1969 94.4875 47.8672 90.3368 49.0946C89.8878 49.2629 89.4248 49.3912 88.9531 49.4781L87.5584 49.7301C87.3704 49.8055 87.1672 49.8356 86.9654 49.8177C86.7625 49.7982 86.558 49.8322 86.3724 49.9163C86.0722 49.9163 85.7867 49.9163 85.5158 49.9163L84.6702 50.004H82.4738C82.104 50.0133 81.7346 49.9728 81.3756 49.8835C81.1677 49.8306 80.9531 49.8085 80.7387 49.8177L79.8601 49.6972L79.0694 49.5986C78.6521 49.4781 78.2348 49.3685 77.8395 49.2918C77.4441 49.2151 77.0268 49.0946 76.6095 48.9741L75.5113 48.5687C75.1379 48.4153 74.7755 48.262 74.4131 48.0976C72.0058 47.0861 69.8309 45.5948 68.0217 43.7151C66.2223 41.8321 64.7755 39.6428 63.7497 37.251C63.5017 36.6366 63.2926 36.0072 63.1238 35.3665C62.9481 34.742 62.7614 34.0956 62.5527 33.4163C62.4779 33.2508 62.4368 33.072 62.4319 32.8904C62.4308 32.7312 62.4087 32.5728 62.366 32.4193C62.2746 32.0263 62.2122 31.6272 62.1793 31.2251C62.1793 30.8088 62.0695 30.4034 61.9926 30.0309C61.9114 29.8642 61.8772 29.6786 61.8938 29.494C61.9257 29.3386 61.9257 29.1783 61.8938 29.0229V27.8068C61.718 27.1909 61.718 26.5382 61.8938 25.9223C61.9273 25.7892 61.9273 25.65 61.8938 25.5169C61.8854 25.4002 61.8854 25.2831 61.8938 25.1663V24.6076C61.982 24.2485 62.0335 23.8814 62.0475 23.512C62.0475 23.1394 62.1024 22.7669 62.1464 22.4163C62.2287 22.0955 62.2911 21.7698 62.3331 21.4412C62.3331 21.1345 62.4429 20.8058 62.5198 20.4771C62.6955 19.8855 62.8382 19.3157 62.97 18.746C63.085 18.1988 63.2504 17.6633 63.4642 17.1464C63.6729 16.5986 63.8925 16.0508 64.1231 15.5139C64.3424 14.9881 64.607 14.4823 64.9138 14.002C65.5309 12.9066 66.2245 11.8558 66.9894 10.8576C67.1959 10.5643 67.4274 10.2894 67.6812 10.0359L68.439 9.27988C69.4304 8.26446 70.5275 7.35728 71.7116 6.57371C72.9581 5.79327 74.2742 5.12942 75.6431 4.59064C76.1591 4.38062 76.6872 4.20135 77.2245 4.05379C77.7626 3.91136 78.3227 3.77988 78.9157 3.64841C79.1609 3.57111 79.4163 3.53049 79.6734 3.52789C79.9106 3.5308 80.1458 3.48609 80.3653 3.39642C80.7057 3.39642 81.0352 3.33068 81.3427 3.30877L82.364 3.28685C82.4142 3.26482 82.4684 3.25345 82.5232 3.25345C82.5781 3.25345 82.6323 3.26482 82.6825 3.28685C82.7308 3.30864 82.7832 3.3199 82.8362 3.3199C82.8892 3.3199 82.9416 3.30864 82.99 3.28685C86.7371 3.04913 90.4806 3.80514 93.84 5.47809C96.602 6.99229 98.9392 9.17336 100.638 11.8217C101.073 12.5154 101.441 13.2492 101.736 14.0129C102.065 14.8042 102.351 15.6125 102.593 16.4343C102.669 16.7301 102.757 17.0588 102.845 17.4313C102.928 17.7953 102.905 18.1753 102.779 18.5269C102.748 18.6393 102.688 18.7417 102.605 18.8242C102.522 18.9067 102.42 18.9666 102.307 18.998L101.516 19.2171H101.033C100.761 19.3076 100.473 19.3412 100.188 19.3157H99.2761H97.9253C97.3982 19.3157 96.882 19.3157 96.3769 19.3157C95.9135 19.2979 95.4515 19.254 94.9931 19.1843C94.663 19.1503 94.3424 19.0536 94.0487 18.8994C93.692 18.5774 93.4301 18.1646 93.291 17.7052C93.1426 17.2408 92.932 16.7986 92.665 16.3904C91.9108 15.0458 90.8262 13.9148 89.5132 13.1036C88.591 12.5371 87.5977 12.095 86.5591 11.7888C85.6938 11.5119 84.7879 11.3822 83.8795 11.4054C82.9363 11.3929 81.9954 11.4996 81.0791 11.7231L80.1676 11.9422C79.8775 12.0108 79.5944 12.1061 79.322 12.2271C77.9628 12.7781 76.7281 13.5952 75.6907 14.6302C74.6533 15.6651 73.8343 16.897 73.282 18.253C73.0622 18.7641 72.8716 19.2872 72.7109 19.8197C72.5462 20.3675 72.3485 20.9153 72.1399 21.5179C72.1399 21.8137 72.063 22.0877 72.0191 22.3396C71.9751 22.5916 71.9312 22.8546 71.8873 23.1504C71.8084 23.4055 71.7785 23.6731 71.7994 23.9392C71.8198 24.2241 71.7862 24.5103 71.7006 24.7829C71.6214 25.1238 71.5918 25.4744 71.6127 25.8237C71.6127 26.1743 71.6127 26.5249 71.6127 26.8536C71.6127 27.1823 71.6127 27.1932 71.6127 27.3576C71.5799 27.524 71.5799 27.6952 71.6127 27.8616V28.4861C71.6899 28.6847 71.72 28.8984 71.7006 29.1106C71.6793 29.3237 71.7134 29.5388 71.7994 29.7351C71.8054 30.0743 71.8459 30.412 71.9202 30.743C72.0081 31.2032 72.085 31.6305 72.1728 32.0249C72.2524 32.4033 72.3551 32.7765 72.4803 33.1424C72.985 34.7524 73.7491 36.2696 74.7426 37.6345C75.7115 38.9116 76.9581 39.953 78.3886 40.6803C78.8564 40.898 79.3412 41.0776 79.8382 41.2171L81.4854 41.6883L82.0785 41.7869C82.276 41.7982 82.474 41.7982 82.6715 41.7869H83.1767C83.4401 41.8817 83.7218 41.9154 84.0003 41.8855C84.2731 41.8709 84.5446 41.8379 84.813 41.7869C85.0023 41.8147 85.1947 41.8147 85.384 41.7869L86.8007 41.5349C87.2467 41.4468 87.6788 41.2994 88.0855 41.0966C89.0218 40.7101 89.8754 40.1485 90.6004 39.4422C91.3066 38.7298 91.9292 37.9395 92.4563 37.0867C92.7176 36.6521 92.9277 36.1889 93.0823 35.7062C93.247 35.2022 93.4447 34.6982 93.6534 34.1942C93.862 33.6902 93.9059 33.3177 94.0267 32.9452C94.0954 32.7487 94.204 32.5685 94.3457 32.4158C94.4875 32.2631 94.6593 32.1412 94.8504 32.0578C95.1577 31.9722 95.4758 31.9316 95.7948 31.9373H101.868C102.212 31.9193 102.553 32.0073 102.845 32.1892C102.996 32.3072 103.118 32.4587 103.2 32.6319C103.282 32.805 103.322 32.9948 103.317 33.1863C103.337 33.6342 103.281 34.0822 103.153 34.512L102.779 36.1554Z" fill="#F89724"/>
<path d="M82.5287 2.25549e-06C77.2486 2.25549e-06 72.087 1.56209 67.6967 4.48872C63.3064 7.41535 59.8846 11.5751 57.864 16.4419C55.8434 21.3087 55.3147 26.664 56.3448 31.8306C57.3749 36.9972 59.9175 41.743 63.6511 45.4679C67.3848 49.1928 72.1417 51.7295 77.3204 52.7572C82.4991 53.7849 87.867 53.2574 92.7452 51.2415C97.6234 49.2256 101.793 45.8118 104.726 41.4318C107.66 37.0518 109.226 31.9023 109.226 26.6345C109.227 23.1364 108.538 19.6723 107.196 16.4402C105.855 13.2081 103.889 10.2714 101.41 7.79784C98.9302 5.32432 95.9866 3.36249 92.7469 2.0245C89.5072 0.6865 86.035 -0.00143759 82.5287 2.25549e-06ZM102.779 36.1554L102.131 37.9851C101.942 38.5701 101.703 39.1382 101.418 39.6833C101.215 39.9858 101.046 40.309 100.912 40.6474C100.779 40.9719 100.609 41.2806 100.407 41.5677C98.0601 45.1969 94.4875 47.8672 90.3368 49.0946C89.8878 49.2629 89.4248 49.3912 88.9531 49.4781L87.5584 49.7301C87.3704 49.8055 87.1672 49.8356 86.9654 49.8177C86.7625 49.7982 86.558 49.8322 86.3724 49.9163C86.0722 49.9163 85.7867 49.9163 85.5158 49.9163L84.6702 50.004H82.4738C82.104 50.0133 81.7346 49.9728 81.3756 49.8835C81.1677 49.8306 80.9531 49.8085 80.7387 49.8177L79.8601 49.6972L79.0694 49.5986C78.6521 49.4781 78.2348 49.3685 77.8395 49.2918C77.4441 49.2151 77.0268 49.0946 76.6095 48.9741L75.5113 48.5687C75.1379 48.4153 74.7755 48.262 74.4131 48.0976C72.0058 47.0861 69.8309 45.5948 68.0217 43.7151C66.2223 41.8321 64.7755 39.6428 63.7497 37.251C63.5017 36.6366 63.2926 36.0072 63.1238 35.3665C62.9481 34.742 62.7614 34.0956 62.5527 33.4163C62.4779 33.2508 62.4368 33.072 62.4319 32.8904C62.4308 32.7312 62.4087 32.5728 62.366 32.4193C62.2746 32.0263 62.2122 31.6272 62.1793 31.2251C62.1793 30.8088 62.0695 30.4034 61.9926 30.0309C61.9114 29.8642 61.8772 29.6786 61.8938 29.494C61.9257 29.3386 61.9257 29.1783 61.8938 29.0229V27.8068C61.718 27.1909 61.718 26.5382 61.8938 25.9223C61.9273 25.7892 61.9273 25.65 61.8938 25.5169C61.8854 25.4002 61.8854 25.2831 61.8938 25.1663V24.6076C61.982 24.2485 62.0335 23.8814 62.0475 23.512C62.0475 23.1394 62.1024 22.7669 62.1464 22.4163C62.2287 22.0955 62.2911 21.7698 62.3331 21.4412C62.3331 21.1345 62.4429 20.8058 62.5198 20.4771C62.6955 19.8855 62.8382 19.3157 62.97 18.746C63.085 18.1988 63.2504 17.6633 63.4642 17.1464C63.6729 16.5986 63.8925 16.0508 64.1231 15.5139C64.3424 14.9881 64.607 14.4823 64.9138 14.002C65.5309 12.9066 66.2245 11.8558 66.9894 10.8576C67.1959 10.5643 67.4274 10.2894 67.6812 10.0359L68.439 9.27988C69.4304 8.26446 70.5275 7.35728 71.7116 6.57371C72.9581 5.79327 74.2742 5.12942 75.6431 4.59064C76.1591 4.38062 76.6872 4.20135 77.2245 4.05379C77.7626 3.91136 78.3227 3.77988 78.9157 3.64841C79.1609 3.57111 79.4163 3.53049 79.6734 3.52789C79.9106 3.5308 80.1458 3.48609 80.3653 3.39642C80.7057 3.39642 81.0352 3.33068 81.3427 3.30877L82.364 3.28685C82.4142 3.26482 82.4684 3.25345 82.5232 3.25345C82.5781 3.25345 82.6323 3.26482 82.6825 3.28685C82.7308 3.30864 82.7832 3.3199 82.8362 3.3199C82.8892 3.3199 82.9416 3.30864 82.99 3.28685C86.7371 3.04913 90.4806 3.80514 93.84 5.47809C96.602 6.99229 98.9392 9.17336 100.638 11.8217C101.073 12.5154 101.441 13.2492 101.736 14.0129C102.065 14.8042 102.351 15.6125 102.593 16.4343C102.669 16.7301 102.757 17.0588 102.845 17.4313C102.928 17.7953 102.905 18.1753 102.779 18.5269C102.748 18.6393 102.688 18.7417 102.605 18.8242C102.522 18.9067 102.42 18.9666 102.307 18.998L101.516 19.2171H101.033C100.761 19.3076 100.473 19.3412 100.188 19.3157H99.2761H97.9253C97.3982 19.3157 96.882 19.3157 96.3769 19.3157C95.9135 19.2979 95.4515 19.254 94.9931 19.1843C94.663 19.1503 94.3424 19.0536 94.0487 18.8994C93.692 18.5774 93.4301 18.1646 93.291 17.7052C93.1426 17.2408 92.932 16.7986 92.665 16.3904C91.9108 15.0458 90.8262 13.9148 89.5132 13.1036C88.591 12.5371 87.5977 12.095 86.5591 11.7888C85.6938 11.5119 84.7879 11.3822 83.8795 11.4054C82.9363 11.3929 81.9954 11.4996 81.0791 11.7231L80.1676 11.9422C79.8775 12.0108 79.5944 12.1061 79.322 12.2271C77.9628 12.7781 76.7281 13.5952 75.6907 14.6302C74.6533 15.6651 73.8343 16.897 73.282 18.253C73.0622 18.7641 72.8716 19.2872 72.7109 19.8197C72.5462 20.3675 72.3485 20.9153 72.1399 21.5179C72.1399 21.8137 72.063 22.0877 72.0191 22.3396C71.9751 22.5916 71.9312 22.8546 71.8873 23.1504C71.8084 23.4055 71.7785 23.6731 71.7994 23.9392C71.8198 24.2241 71.7862 24.5103 71.7006 24.7829C71.6214 25.1238 71.5918 25.4744 71.6127 25.8237C71.6127 26.1743 71.6127 26.5249 71.6127 26.8536C71.6127 27.1823 71.6127 27.1932 71.6127 27.3576C71.5799 27.524 71.5799 27.6952 71.6127 27.8616V28.4861C71.6899 28.6847 71.72 28.8984 71.7006 29.1106C71.6793 29.3237 71.7134 29.5388 71.7994 29.7351C71.8054 30.0743 71.8459 30.412 71.9202 30.743C72.0081 31.2032 72.085 31.6305 72.1728 32.0249C72.2524 32.4033 72.3551 32.7765 72.4803 33.1424C72.985 34.7524 73.7491 36.2696 74.7426 37.6345C75.7115 38.9116 76.9581 39.953 78.3886 40.6803C78.8564 40.898 79.3412 41.0776 79.8382 41.2171L81.4854 41.6883L82.0785 41.7869C82.276 41.7982 82.474 41.7982 82.6715 41.7869H83.1767C83.4401 41.8817 83.7218 41.9154 84.0003 41.8855C84.2731 41.8709 84.5446 41.8379 84.813 41.7869C85.0023 41.8147 85.1947 41.8147 85.384 41.7869L86.8007 41.5349C87.2467 41.4468 87.6788 41.2994 88.0855 41.0966C89.0218 40.7101 89.8754 40.1485 90.6004 39.4422C91.3066 38.7298 91.9292 37.9395 92.4563 37.0867C92.7176 36.6521 92.9277 36.1889 93.0823 35.7062C93.247 35.2022 93.4447 34.6982 93.6534 34.1942C93.862 33.6902 93.9059 33.3177 94.0267 32.9452C94.0954 32.7487 94.204 32.5685 94.3457 32.4158C94.4875 32.2631 94.6593 32.1412 94.8504 32.0578C95.1577 31.9722 95.4758 31.9316 95.7948 31.9373H101.868C102.212 31.9193 102.553 32.0073 102.845 32.1892C102.996 32.3072 103.118 32.4587 103.2 32.6319C103.282 32.805 103.322 32.9948 103.317 33.1863C103.337 33.6342 103.281 34.0822 103.153 34.512L102.779 36.1554Z" fill="#F89724"/>
<path d="M23.9075 39.9023C23.8526 39.6942 23.7977 39.475 23.7428 39.234C23.6879 38.993 23.644 38.7519 23.589 38.5219L23.4682 37.8097C23.415 37.5354 23.3892 37.2564 23.3914 36.977C23.3891 36.6978 23.3634 36.4193 23.3145 36.1444C23.2944 36.0247 23.2944 35.9025 23.3145 35.7828C23.33 35.6775 23.33 35.5704 23.3145 35.4651C23.2984 35.3414 23.2984 35.2162 23.3145 35.0926C23.3367 34.9804 23.3367 34.8651 23.3145 34.7529C23.3145 34.5886 23.3145 34.4462 23.3145 34.2928C23.3033 34.1432 23.3033 33.9931 23.3145 33.8436C23.2065 33.6001 23.1219 33.347 23.0619 33.0876C23.0619 32.8246 23.029 32.5727 22.9631 32.3316C22.7984 31.729 22.6226 31.1812 22.4469 30.7101C22.2531 30.2168 21.9985 29.7494 21.6892 29.3187C21.5041 29.0321 21.2742 28.7769 21.0083 28.5627L20.2176 27.9272C20.1174 27.8616 20.0252 27.7843 19.9431 27.6972C19.891 27.6451 19.855 27.5792 19.8395 27.5073C19.8239 27.4355 19.8294 27.3606 19.8552 27.2918C19.9059 27.1632 19.9892 27.05 20.0968 26.9631C20.1975 26.869 20.3038 26.7812 20.4153 26.7001C20.602 26.5687 20.7777 26.4372 20.9314 26.3057L21.4037 25.9113C21.514 25.8251 21.6169 25.7298 21.7111 25.6264C21.8013 25.5254 21.8857 25.4193 21.9637 25.3087L22.1614 25.0567C22.2351 24.9752 22.3013 24.8872 22.3591 24.7938C22.5741 24.4814 22.7476 24.1426 22.8752 23.7858C23.007 23.4352 23.1498 23.0517 23.2816 22.6902C23.3279 22.5148 23.3537 22.3346 23.3584 22.1533C23.3589 21.9609 23.3847 21.7693 23.4353 21.5836C23.5005 21.3437 23.541 21.0977 23.5561 20.8495C23.5976 20.5919 23.5976 20.3293 23.5561 20.0717V19.7211C23.5116 19.6252 23.4927 19.5196 23.5012 19.4143C23.5234 19.3095 23.5234 19.2013 23.5012 19.0966C23.3694 18.6145 23.2486 18.1762 23.1498 17.7818C23.0352 17.3805 22.873 16.9943 22.6666 16.6314C22.5643 16.5044 22.4793 16.3644 22.414 16.2151C22.3447 16.0655 22.256 15.9255 22.1504 15.7987C21.769 15.2011 21.2859 14.6746 20.7228 14.243C20.1588 13.8099 19.5472 13.4424 18.8998 13.1474C18.7167 13.0719 18.5297 13.0061 18.3397 12.9501L17.7796 12.7968C17.6508 12.7441 17.5125 12.718 17.3733 12.7201C17.2298 12.7183 17.088 12.6886 16.956 12.6324C16.5949 12.5544 16.2272 12.5103 15.8578 12.5009H14.6498H1.09818C1.04076 12.5174 0.979877 12.5174 0.922466 12.5009C0.862146 12.4792 0.796094 12.4792 0.735774 12.5009C0.499645 12.563 0.290977 12.7018 0.142753 12.8954C-0.00368413 13.1146 -0.066063 13.379 -0.0329566 13.6404C-0.0329566 13.9581 -0.0329566 14.2649 -0.0329566 14.5607V39.7599C-0.0545758 39.9118 -0.0306604 40.0668 0.0357798 40.2052C0.10222 40.3436 0.208216 40.4593 0.340427 40.5378C0.663216 40.7536 1.05282 40.8469 1.43861 40.8007H2.78938H5.15049C5.31137 40.8057 5.4717 40.7797 5.62271 40.724C5.73616 40.6907 5.83914 40.6288 5.92181 40.5444C6.00448 40.46 6.06409 40.3559 6.09493 40.242C6.15351 40.0995 6.18336 39.9468 6.18278 39.7928V39.2121C6.18278 39.0039 6.18278 38.7848 6.18278 38.5657C6.18278 38.3466 6.18278 38.1165 6.18278 37.9083V32.8685C6.18278 32.4083 6.18278 31.9153 6.18278 31.3565C6.12218 30.9278 6.21975 30.4917 6.45733 30.1294C6.55411 30.0024 6.69524 29.9164 6.85268 29.8884C7.04142 29.8584 7.22839 29.8181 7.41275 29.7679H12.5193C13.078 29.7559 13.6348 29.8374 14.1666 30.0089L14.6059 30.1294C14.7418 30.1544 14.8745 30.1949 15.0012 30.2499C15.5173 30.4758 15.948 30.8595 16.2312 31.3456C16.5371 31.825 16.7912 32.3355 16.9889 32.8685C17.0706 33.1593 17.1294 33.456 17.1647 33.7559C17.1647 34.0627 17.2525 34.3585 17.3074 34.6543C17.2862 34.7702 17.2862 34.889 17.3074 35.0049C17.3629 35.3269 17.3886 35.6533 17.3843 35.98C17.3846 36.3196 17.4251 36.6579 17.5051 36.988C17.5167 37.0779 17.5388 37.1662 17.571 37.2509C17.5769 37.3495 17.5769 37.4482 17.571 37.5468C17.6836 38.0139 17.7498 38.491 17.7687 38.9711C17.7841 39.4178 17.9085 39.854 18.1311 40.242C18.2057 40.369 18.3092 40.4768 18.4332 40.5567C18.5571 40.6366 18.6981 40.6864 18.8449 40.7021C19.2107 40.7205 19.5772 40.7205 19.9431 40.7021H22.1394H22.985C23.2191 40.7298 23.4548 40.6671 23.644 40.5268C23.7385 40.4503 23.8137 40.3527 23.8636 40.242C23.9142 40.1364 23.9296 40.0173 23.9075 39.9023ZM17.3184 22.0219C17.2305 22.3944 17.1537 22.723 17.0768 23.0079C17.0036 23.2935 16.881 23.5642 16.7144 23.8077C16.4878 24.1436 16.192 24.4275 15.8468 24.6404C15.4712 24.8617 15.069 25.0347 14.6498 25.1553C14.4642 25.2084 14.2718 25.2343 14.0787 25.232C13.8717 25.2366 13.6656 25.2623 13.4638 25.3087H12.9476C12.7667 25.3654 12.5767 25.3877 12.3875 25.3744H11.7945H9.47734H8.64272C8.33912 25.3913 8.03482 25.3913 7.73123 25.3744C7.45991 25.3365 7.1919 25.2779 6.92955 25.1991C6.72285 25.1637 6.53791 25.0498 6.4134 24.8814C6.27094 24.6558 6.2019 24.3917 6.21573 24.1254V19.5238C6.21573 19.2061 6.21573 18.8774 6.21573 18.5487C6.19502 18.2659 6.26007 17.9834 6.40242 17.738C6.475 17.6314 6.5692 17.5413 6.67892 17.4733C6.78864 17.4054 6.91144 17.3612 7.03937 17.3436H7.19311C7.22388 17.3471 7.25505 17.3429 7.2838 17.3315C7.31256 17.32 7.338 17.3016 7.35784 17.2778H11.9592C12.5962 17.2778 13.2112 17.2778 13.7932 17.2778C14.3276 17.2905 14.8541 17.4097 15.3417 17.6284C15.7388 17.7926 16.0983 18.0356 16.3984 18.3426C16.6986 18.6495 16.9331 19.0142 17.0878 19.4143C17.1394 19.4847 17.1698 19.5683 17.1756 19.6553C17.1781 19.7516 17.2045 19.8457 17.2525 19.9292C17.3203 20.2436 17.368 20.562 17.3953 20.8824C17.4321 21.2625 17.4173 21.6457 17.3513 22.0219H17.3184Z" fill="#010101"/>
<path d="M51.1755 26.6345C51.173 23.4846 51.6469 20.3524 52.5812 17.3437L52.2517 16.8616L51.8893 16.4343L51.494 16.018C51.2247 15.6756 50.9191 15.3634 50.5825 15.0867C50.2091 14.7909 49.8467 14.517 49.4843 14.2759C48.3518 13.4859 47.1033 12.8761 45.7834 12.4682C44.1969 12.0114 42.5458 11.8189 40.8965 11.8984C40.825 11.9211 40.7483 11.9211 40.6768 11.8984C40.6053 11.8765 40.5287 11.8765 40.4572 11.8984L39.2931 12.0518H38.9087C38.7797 12.0559 38.6527 12.0857 38.5353 12.1395C38.162 12.2381 37.7886 12.3367 37.4372 12.4134C37.0631 12.4895 36.6958 12.5957 36.339 12.7311C34.9791 13.2734 33.7063 14.0116 32.5612 14.9223C31.4805 15.8239 30.5565 16.8974 29.8267 18.0996C29.5526 18.4964 29.3242 18.9227 29.1459 19.3706C28.9555 19.8234 28.7578 20.2726 28.5528 20.7182C28.3888 21.1321 28.2674 21.5616 28.1904 22C28.1091 22.4475 28.0028 22.8901 27.872 23.3257C27.8194 23.4582 27.7933 23.5996 27.7951 23.7421C27.7968 23.8845 27.7707 24.0259 27.7182 24.1584C27.6633 24.3205 27.6409 24.4917 27.6523 24.6624C27.6837 24.84 27.6837 25.0217 27.6523 25.1992V25.4293C27.6193 25.555 27.6193 25.6871 27.6523 25.8128C27.6736 25.936 27.6736 26.062 27.6523 26.1853C27.59 26.3835 27.564 26.5914 27.5754 26.7988C27.5632 27.0063 27.5893 27.2143 27.6523 27.4124C27.6742 27.576 27.6742 27.7418 27.6523 27.9054C27.6195 28.0718 27.6195 28.243 27.6523 28.4094C27.6856 28.5202 27.6856 28.6383 27.6523 28.749C27.6366 28.8727 27.6366 28.9979 27.6523 29.1215C27.7072 29.3229 27.7475 29.528 27.7731 29.7351C27.7953 29.9284 27.8358 30.1191 27.8939 30.3048C27.9041 30.4068 27.9041 30.5096 27.8939 30.6116C27.9025 30.7256 27.9323 30.8371 27.9818 30.9403C28.1136 31.3676 28.2344 31.7839 28.3332 32.1893C28.4384 32.5885 28.5705 32.9801 28.7285 33.3616C29.3753 34.8788 30.2862 36.2698 31.4191 37.4702C32.5595 38.6526 33.9313 39.5887 35.4494 40.2202C35.746 40.3516 36.0425 40.4721 36.35 40.5817L37.2395 40.8994L37.8764 41.0419C38.0851 41.0419 38.3047 41.1186 38.5134 41.1733C38.7073 41.2257 38.906 41.2587 39.1064 41.2719C39.3069 41.2852 39.5055 41.3182 39.6994 41.3706H40.1387C40.2658 41.3931 40.3959 41.3931 40.5231 41.3706C40.647 41.3549 40.7725 41.3549 40.8965 41.3706C41.0664 41.4052 41.2392 41.4235 41.4126 41.4253C41.5985 41.4492 41.7867 41.4492 41.9727 41.4253L43.2795 41.3048C43.4181 41.2881 43.5582 41.2881 43.6968 41.3048C43.8396 41.3066 43.9814 41.2805 44.1141 41.2281L44.9927 41.0638C45.2881 41.0128 45.5784 40.9358 45.8603 40.8337C47.7117 40.2438 49.4205 39.2776 50.879 37.996C51.5209 37.4115 52.0955 36.7574 52.5921 36.0459C51.6425 32.999 51.1648 29.8253 51.1755 26.6345ZM49.1438 27.3905V28.0807C49.1552 28.1936 49.1552 28.3074 49.1438 28.4204L49.023 29.3735C48.9133 29.7109 48.8253 30.0549 48.7595 30.4034C48.6973 30.7314 48.5979 31.0512 48.463 31.3566C48.0834 32.3709 47.5256 33.3096 46.8157 34.1285C46.0668 34.9048 45.1504 35.5006 44.1361 35.8706C43.8961 35.9814 43.6406 36.0553 43.3784 36.0897L42.5767 36.2321C42.4615 36.2623 42.3404 36.2623 42.2253 36.2321C42.105 36.2164 41.9831 36.2164 41.8629 36.2321H41.0282C40.8676 36.2334 40.7079 36.2075 40.556 36.1554C40.4289 36.1329 40.2988 36.1329 40.1717 36.1554C40.0485 36.1805 39.9215 36.1805 39.7983 36.1554L38.7001 35.8377C38.3723 35.7299 38.0588 35.5827 37.7666 35.3994L37.3383 35.1474C37.1881 35.0618 37.0512 34.9548 36.932 34.8297C36.2784 34.3649 35.7348 33.7628 35.3396 33.0658C34.8923 32.3209 34.5243 31.5314 34.2414 30.7102C34.1349 30.4425 34.0612 30.1629 34.0218 29.8775C33.9791 29.5824 33.9205 29.2898 33.8461 29.001C33.8524 28.9025 33.8524 28.8037 33.8461 28.7052C33.8406 28.6067 33.8406 28.5079 33.8461 28.4094C33.8347 28.2965 33.8347 28.1827 33.8461 28.0698C33.8575 27.9568 33.8575 27.843 33.8461 27.7301V27.2919C33.7791 27.0533 33.7568 26.8045 33.7802 26.5578C33.7839 26.3093 33.8209 26.0625 33.89 25.8237C33.9121 25.6822 33.9121 25.538 33.89 25.3964C33.8453 25.2538 33.8453 25.1009 33.89 24.9582C33.9044 24.8601 33.9044 24.7605 33.89 24.6624C33.8792 24.5641 33.8792 24.4649 33.89 24.3666C33.9709 24.0861 34.0333 23.8006 34.0767 23.512C34.1152 23.2234 34.1739 22.9378 34.2524 22.6574C34.6005 21.5579 35.1314 20.5246 35.8228 19.6006C36.5086 18.7263 37.4088 18.0433 38.4365 17.6176C38.6853 17.5124 38.9424 17.4281 39.2052 17.3656L40.0618 17.1793C40.1813 17.1545 40.3047 17.1545 40.4242 17.1793C40.5293 17.2009 40.6376 17.2009 40.7427 17.1793C40.7999 17.1616 40.8612 17.1616 40.9184 17.1793C40.9749 17.2013 41.0376 17.2013 41.0941 17.1793C42.7201 17.0827 44.3329 17.5216 45.6845 18.4283C46.8015 19.2833 47.6728 20.417 48.2104 21.7152C48.3406 21.9981 48.4472 22.2912 48.5289 22.5917L48.7705 23.4572C48.8199 23.5981 48.8458 23.7462 48.8473 23.8955C48.9024 24.0846 48.9356 24.2794 48.9462 24.4761C48.9584 24.6834 48.9915 24.889 49.045 25.0897C49.0803 25.1851 49.0803 25.29 49.045 25.3855C49.029 25.4835 49.029 25.5833 49.045 25.6813V26.3606C49.1106 26.5431 49.1405 26.7365 49.1329 26.9303C49.159 27.0823 49.1627 27.2374 49.1438 27.3905Z" fill="#010101"/>
<path d="M135.374 39.8038C135.337 39.6352 135.286 39.4701 135.22 39.3108C135.165 39.1822 135.117 39.0505 135.077 38.9164C135.029 38.853 135.002 38.7765 135 38.6973C134.998 38.618 134.971 38.5415 134.923 38.4781C134.586 37.6601 134.272 36.8274 133.979 35.9801C133.682 35.1365 133.375 34.2929 133.023 33.4383C132.947 33.2301 132.881 33.022 132.826 32.8247C132.765 32.6128 132.685 32.4074 132.584 32.2112C132.43 31.7949 132.266 31.3676 132.112 30.9403C131.958 30.513 131.793 30.0967 131.629 29.6803C131.587 29.5809 131.554 29.4783 131.53 29.3735C131.514 29.2701 131.48 29.1701 131.431 29.0777C130.882 27.763 130.333 26.4263 129.905 25.0787C129.476 23.7311 128.938 22.3945 128.411 21.0688C128.202 20.5429 128.005 19.9731 127.818 19.502C127.631 19.0309 127.434 18.4612 127.225 17.9353L127.06 17.4642L126.907 16.9821C126.72 16.5329 126.544 16.0947 126.39 15.6564C126.237 15.2182 126.05 14.7799 125.874 14.3307C125.738 14.0289 125.625 13.7176 125.534 13.3994C125.488 13.25 125.413 13.1111 125.313 12.9908C125.213 12.8704 125.09 12.771 124.952 12.6982C124.733 12.5597 124.474 12.498 124.216 12.5229H123.326H119.812C119.762 12.5397 119.708 12.5397 119.658 12.5229C119.606 12.5016 119.547 12.5016 119.494 12.5229C119.311 12.5579 119.137 12.6247 118.978 12.7202C118.743 12.9102 118.571 13.1659 118.483 13.4542C118.391 13.7577 118.277 14.0542 118.143 14.3417C117.912 14.9004 117.682 15.4373 117.473 16.0508C117.264 16.6644 117.045 17.1465 116.836 17.749C116.789 17.8673 116.749 17.988 116.715 18.1106C116.687 18.2311 116.646 18.3485 116.595 18.4612C115.991 19.9184 115.419 21.3865 114.903 22.8437C114.574 23.7969 114.222 24.75 113.805 25.6923C113.805 25.9771 113.805 26.262 113.805 26.5469C113.814 31.4669 112.651 36.3186 110.412 40.7022H110.961H111.806H112.74C113.019 40.7039 113.299 40.6819 113.575 40.6365C113.792 40.6679 114.014 40.6336 114.211 40.5379C114.43 40.3672 114.591 40.134 114.673 39.8696C114.757 39.5869 114.856 39.309 114.969 39.0369C115.152 38.5548 115.317 38.0728 115.463 37.5907C115.606 37.1065 115.786 36.634 116.002 36.1773C116.108 35.9197 116.199 35.6563 116.276 35.3885C116.352 35.136 116.506 34.9138 116.715 34.753C117.079 34.5257 117.507 34.422 117.934 34.4572H119.384H126.039C126.163 34.4685 126.288 34.4685 126.412 34.4572C126.642 34.496 126.859 34.5859 127.049 34.7202C127.204 34.8258 127.328 34.9692 127.412 35.1365C127.499 35.3093 127.573 35.4888 127.631 35.6733C127.697 35.8706 127.763 36.0897 127.851 36.3198C127.939 36.5498 128.158 37.1305 128.301 37.5469C128.444 37.9632 128.587 38.4014 128.719 38.8178C128.824 39.0484 128.912 39.2864 128.982 39.5299C129.047 39.7697 129.147 39.9987 129.279 40.2092C129.345 40.3286 129.436 40.4325 129.546 40.5138C129.656 40.5951 129.782 40.6519 129.916 40.6803C130.074 40.7357 130.242 40.758 130.41 40.7461H130.992H132.881C133.199 40.7461 133.594 40.7461 134.089 40.7461C134.463 40.8009 134.845 40.7437 135.187 40.5817C135.259 40.5512 135.321 40.503 135.369 40.4417C135.417 40.3804 135.449 40.3079 135.461 40.2311C135.461 40.0843 135.431 39.9389 135.374 39.8038ZM124.787 29.8337C124.539 29.8908 124.284 29.9166 124.029 29.9104H120.219C119.9 29.9104 119.582 29.9104 119.285 29.9104C119.154 29.9105 119.025 29.8809 118.907 29.824C118.789 29.7671 118.685 29.6842 118.604 29.5817C118.513 29.353 118.513 29.0982 118.604 28.8696L118.846 28.0478C118.923 27.7959 119.022 27.5439 119.12 27.2809C119.417 26.514 119.691 25.7471 119.933 24.9801C120.175 24.2132 120.471 23.4572 120.79 22.7231C120.927 22.3657 121.041 21.9998 121.13 21.6275C121.207 21.2781 121.365 20.9516 121.591 20.6743C121.634 20.6244 121.686 20.5834 121.745 20.5538C121.807 20.5248 121.863 20.4838 121.91 20.4333C121.986 20.4333 122.062 20.4511 122.131 20.4854C122.199 20.5196 122.259 20.5693 122.305 20.6305C122.414 20.7728 122.506 20.9272 122.58 21.0907C122.66 21.2714 122.727 21.4582 122.777 21.6494C122.822 21.817 122.877 21.9816 122.942 22.1425C123.315 23.0628 123.645 23.9941 123.93 24.9144C124.216 25.8347 124.545 26.755 124.886 27.6534C124.934 27.7446 124.961 27.846 124.963 27.9492C124.966 28.0537 124.997 28.1555 125.051 28.2451C125.181 28.5359 125.259 28.8475 125.281 29.1654C125.295 29.3178 125.253 29.4702 125.162 29.5934C125.07 29.7166 124.937 29.8021 124.787 29.8337Z" fill="#010101"/>
<path d="M168.396 12.6982C168.223 12.588 168.019 12.5343 167.814 12.5448H160.983C160.758 12.5338 160.536 12.6038 160.357 12.7421C160.16 12.8607 160.01 13.0421 159.929 13.257C159.841 13.4652 159.764 13.6843 159.687 13.8925L159.292 15.1415C159.16 15.5432 159.028 15.9595 158.897 16.3905C158.359 18.0339 157.798 19.6773 157.304 21.2879C156.81 22.8984 156.206 24.5747 155.712 26.1415C155.503 26.755 155.306 27.3576 155.13 27.9492C154.954 28.5409 154.767 29.1434 154.559 29.757C154.482 29.9652 154.394 30.2062 154.317 30.4691C154.297 30.5816 154.245 30.6859 154.167 30.7695C154.089 30.8531 153.989 30.9124 153.878 30.9403C153.856 30.9581 153.829 30.9678 153.801 30.9678C153.773 30.9678 153.746 30.9581 153.724 30.9403L153.559 30.8636C153.435 30.7911 153.338 30.6793 153.285 30.5458C153.23 30.4144 153.175 30.2829 153.131 30.1514C152.912 29.619 152.725 29.0738 152.571 28.5189C152.412 27.9692 152.225 27.428 152.011 26.8974C151.374 25.1992 150.792 23.501 150.243 21.7809C149.694 20.0608 149.145 18.3735 148.519 16.7082C148.354 16.259 148.2 15.8098 148.058 15.3715C147.915 14.9333 147.761 14.506 147.596 14.0897L147.366 13.3556C147.301 13.124 147.162 12.92 146.97 12.7749C146.67 12.5734 146.31 12.477 145.949 12.501H139.47C139.42 12.5177 139.366 12.5177 139.316 12.501C139.292 12.4901 139.266 12.4845 139.239 12.4845C139.213 12.4845 139.186 12.4901 139.162 12.501C139.034 12.5186 138.911 12.5628 138.802 12.6308C138.692 12.6987 138.598 12.7889 138.525 12.8954C138.457 13.0363 138.416 13.1887 138.404 13.3446C138.388 13.5488 138.388 13.754 138.404 13.9582V39.0697C138.387 39.3544 138.387 39.6397 138.404 39.9243C138.406 40.0398 138.432 40.1537 138.479 40.2591C138.526 40.3646 138.594 40.4594 138.679 40.5379C138.848 40.673 139.056 40.7499 139.272 40.757H140.074H142.138H142.775C142.975 40.769 143.176 40.7467 143.368 40.6913C143.489 40.6837 143.607 40.6481 143.712 40.5872C143.817 40.5264 143.906 40.4419 143.972 40.3407C144.078 40.1903 144.132 40.0095 144.126 39.8257V26.6783C144.126 26.3825 144.126 26.0976 144.126 25.8018V24.9253C144.126 24.7172 144.126 24.509 144.126 24.3118C144.093 24.1233 144.093 23.9305 144.126 23.7421C144.178 23.5605 144.204 23.3723 144.203 23.1833C144.195 23.1044 144.211 23.025 144.248 22.9549C144.285 22.8848 144.342 22.8271 144.412 22.7889C144.44 22.7675 144.475 22.756 144.51 22.756C144.546 22.756 144.581 22.7675 144.609 22.7889L144.763 22.9313C144.948 23.2142 145.096 23.5199 145.202 23.8407C145.493 24.4867 145.746 25.1488 145.96 25.8237C146.169 26.514 146.399 27.1823 146.63 27.8506C146.86 28.5189 147.047 28.9462 147.234 29.5488C147.421 30.1514 147.618 30.6444 147.827 31.2142C147.953 31.47 148.052 31.738 148.123 32.014C148.191 32.2831 148.279 32.5468 148.387 32.8028C148.413 32.8661 148.432 32.9323 148.442 33C148.451 33.0681 148.469 33.1345 148.497 33.1972C148.607 33.4602 148.694 33.7341 148.782 33.997C148.859 34.257 148.966 34.507 149.101 34.7421C149.101 34.8297 149.101 34.8954 149.156 34.9612C149.169 35.0365 149.191 35.1101 149.222 35.1803C149.353 35.498 149.463 35.8377 149.573 36.1992C149.683 36.5608 149.804 36.8895 149.935 37.2072L150.056 37.5578C150.187 37.8753 150.297 38.201 150.386 38.5329C150.483 38.8634 150.596 39.1889 150.726 39.508L151.001 40.1215C151.101 40.3127 151.253 40.472 151.44 40.5817C151.585 40.6734 151.752 40.7262 151.923 40.7351C152.154 40.7474 152.385 40.7474 152.615 40.7351H153.373H154.032H154.943C155.097 40.6866 155.255 40.6536 155.415 40.6365C155.561 40.6158 155.698 40.5551 155.811 40.4612C155.942 40.3551 156.048 40.2201 156.118 40.0668L156.327 39.5409C156.461 39.2556 156.567 38.9585 156.645 38.6534C156.728 38.3498 156.835 38.0531 156.964 37.766C157.015 37.6955 157.046 37.612 157.052 37.5249C157.052 37.4386 157.078 37.3543 157.129 37.2839C157.414 36.517 157.689 35.75 157.919 34.9612C158.15 34.1723 158.435 33.4164 158.754 32.6494C158.861 32.3897 158.949 32.1224 159.017 31.8496C159.082 31.595 159.166 31.3459 159.27 31.1046C159.396 30.8487 159.495 30.5808 159.567 30.3048C159.631 30.0453 159.719 29.7923 159.83 29.5488C159.882 29.475 159.909 29.3868 159.907 29.2968C159.91 29.2042 159.937 29.1138 159.984 29.0339C160.116 28.6942 160.236 28.3546 160.346 28.004C160.456 27.6534 160.577 27.3138 160.709 26.9741C160.782 26.8228 160.84 26.6651 160.884 26.503C160.884 26.3387 160.972 26.1853 161.027 26.0209C161.181 25.6046 161.335 25.1773 161.477 24.75C161.62 24.3227 161.774 23.9174 161.939 23.5229C161.994 23.3915 162.048 23.249 162.114 23.1066C162.175 22.9654 162.265 22.8384 162.378 22.7341L162.477 22.6136C162.502 22.594 162.533 22.5834 162.565 22.5834C162.596 22.5834 162.627 22.594 162.652 22.6136C162.731 22.6426 162.798 22.6973 162.842 22.7689C162.886 22.8405 162.904 22.9247 162.894 23.008C162.89 23.2115 162.916 23.4145 162.971 23.6106C163.028 23.8211 163.046 24.04 163.026 24.257C163.026 24.4871 163.026 24.7062 163.026 24.9144V25.9333C163.026 26.262 163.026 26.6126 163.026 26.9741V39.8695C163.018 40.0552 163.077 40.2375 163.191 40.3845C163.23 40.4541 163.283 40.5145 163.347 40.5618C163.412 40.609 163.486 40.642 163.564 40.6584L164.102 40.7789H167.078H167.88C168.096 40.7734 168.305 40.6964 168.473 40.5598C168.558 40.482 168.625 40.3871 168.671 40.2813C168.716 40.1755 168.739 40.0613 168.736 39.9462C168.736 39.6723 168.736 39.3875 168.736 39.0917V13.5966C168.766 13.4302 168.749 13.259 168.69 13.1009C168.63 12.9428 168.528 12.8038 168.396 12.6982Z" fill="#010101"/>
<path d="M116.847 52.009C116.853 51.9617 116.853 51.9139 116.847 51.8666C116.842 51.7863 116.842 51.7058 116.847 51.6256C116.847 51.5598 116.847 51.4831 116.77 51.4064C116.683 51.2062 116.565 51.0213 116.419 50.8586C116.153 50.5815 115.831 50.3647 115.474 50.2232L114.98 50.0369L114.76 49.9602L114.53 49.9054H114.442H114.354C114.237 49.861 114.115 49.828 113.992 49.8068L113.618 49.7301H113.399H113.168L112.465 49.5439C112.247 49.4906 112.039 49.4017 111.85 49.2809C111.715 49.206 111.593 49.1099 111.488 48.9961C111.385 48.8671 111.31 48.7177 111.268 48.5578C111.256 48.489 111.256 48.4185 111.268 48.3497C111.256 48.2734 111.256 48.1958 111.268 48.1196C111.268 48.0319 111.268 47.9552 111.268 47.8895C111.28 47.8173 111.302 47.7472 111.334 47.6813C111.396 47.5199 111.498 47.3767 111.631 47.265C111.768 47.1566 111.919 47.0681 112.081 47.002C112.426 46.8506 112.802 46.7794 113.179 46.7939H113.388C113.453 46.7834 113.52 46.7834 113.585 46.7939H113.684H113.838H113.981C114.23 46.8467 114.466 46.9512 114.673 47.1007C114.946 47.2811 115.157 47.5412 115.277 47.8457C115.319 47.9362 115.348 48.032 115.364 48.1305C115.381 48.2287 115.418 48.3221 115.474 48.4044C115.506 48.4145 115.541 48.4145 115.573 48.4044H115.672H115.771H115.892H116.177C116.216 48.4069 116.255 48.3991 116.289 48.3817C116.324 48.3644 116.354 48.3382 116.375 48.3058C116.39 48.2484 116.39 48.188 116.375 48.1305C116.386 48.0579 116.386 47.984 116.375 47.9114C116.375 47.758 116.298 47.6046 116.254 47.4513C116.214 47.3125 116.154 47.1798 116.078 47.0568L116.012 46.9363C115.992 46.887 115.962 46.8423 115.925 46.8048L115.826 46.6734L115.727 46.5528C115.712 46.5223 115.689 46.4959 115.661 46.4761V46.4214L115.529 46.3228C115.478 46.3001 115.43 46.2706 115.386 46.2351C115.084 46.0498 114.754 45.913 114.409 45.8297C113.996 45.7306 113.571 45.69 113.146 45.7092C113.146 45.7092 113.146 45.7092 113.047 45.7092H112.926H112.707H112.487H112.301H112.114C111.893 45.7658 111.68 45.8466 111.477 45.9503H111.411H111.356C111.138 46.0895 110.932 46.2471 110.741 46.4214C110.552 46.6031 110.4 46.8187 110.291 47.0568C110.255 47.1299 110.23 47.2072 110.214 47.2869C110.193 47.376 110.168 47.4638 110.137 47.5499C110.127 47.6702 110.127 47.7911 110.137 47.9114C110.109 48.0339 110.109 48.1614 110.137 48.2839V48.3606C110.142 48.3896 110.142 48.4193 110.137 48.4483L110.203 48.7222C110.216 48.8076 110.245 48.8896 110.291 48.9632C110.367 49.1683 110.495 49.3498 110.664 49.4891C110.822 49.635 110.995 49.7636 111.18 49.8726C111.259 49.9206 111.339 49.9645 111.422 50.004L111.675 50.1026H111.751L112.015 50.3985L112.41 50.4971C112.648 50.571 112.89 50.6295 113.135 50.6724L113.871 50.8367C114.101 50.8858 114.329 50.9479 114.552 51.023C114.764 51.0945 114.964 51.1979 115.145 51.3297C115.254 51.4056 115.353 51.4938 115.441 51.5927C115.533 51.6976 115.6 51.8209 115.639 51.9542C115.648 51.9827 115.648 52.0134 115.639 52.0419C115.63 52.0778 115.63 52.1155 115.639 52.1514C115.646 52.2243 115.646 52.2977 115.639 52.3706C115.646 52.4508 115.646 52.5314 115.639 52.6116C115.639 52.6773 115.639 52.7431 115.639 52.8088C115.626 52.8759 115.607 52.9418 115.584 53.006C115.496 53.2009 115.36 53.3705 115.189 53.4991C115.007 53.6265 114.812 53.7331 114.607 53.8168C114.536 53.8452 114.462 53.8672 114.387 53.8825H114.178C114.178 53.8825 114.113 53.8825 114.102 53.8825H113.695C113.641 53.8948 113.585 53.8948 113.53 53.8825H113.388C113.344 53.8719 113.299 53.8719 113.256 53.8825C113.216 53.8932 113.175 53.8932 113.135 53.8825H113.003H112.806H112.597C112.41 53.8825 112.235 53.762 112.07 53.6963C111.9 53.6328 111.741 53.5442 111.598 53.4333C111.313 53.2147 111.093 52.9232 110.961 52.5897C110.957 52.5313 110.957 52.4728 110.961 52.4144C110.966 52.3561 110.966 52.2974 110.961 52.2391V52.0967C110.975 52.054 110.975 52.0079 110.961 51.9652C110.935 51.9217 110.897 51.8872 110.851 51.8666C110.822 51.8574 110.792 51.8574 110.763 51.8666H110.181C110.14 51.8674 110.1 51.8778 110.064 51.8968C110.028 51.9158 109.996 51.943 109.972 51.9762C109.951 52.0401 109.951 52.1094 109.972 52.1734C109.961 52.2606 109.961 52.3491 109.972 52.4363C109.972 52.4363 109.972 52.524 109.972 52.5678C109.962 52.6184 109.962 52.6706 109.972 52.7212C110.005 52.849 110.049 52.9737 110.104 53.0937C110.148 53.212 110.203 53.3257 110.269 53.4333C110.453 53.7465 110.695 54.0217 110.983 54.2441C111.3 54.4653 111.647 54.6388 112.015 54.759C112.096 54.7909 112.181 54.8129 112.268 54.8248H112.52H112.63H112.729C112.809 54.8361 112.89 54.8361 112.97 54.8248C113.054 54.814 113.139 54.814 113.223 54.8248H114.156H114.288H114.585C114.682 54.8145 114.778 54.7924 114.87 54.759L115.123 54.6823L115.375 54.5947C115.617 54.4829 115.848 54.351 116.067 54.2003C116.207 54.0476 116.322 53.8738 116.408 53.6853C116.487 53.5861 116.55 53.4752 116.594 53.3566C116.649 53.2361 116.693 53.1156 116.737 52.9951C116.749 52.9262 116.749 52.8558 116.737 52.7869C116.727 52.7179 116.727 52.6478 116.737 52.5787V52.4801C116.732 52.4475 116.732 52.4142 116.737 52.3815V52.1295C116.769 52.0849 116.805 52.0444 116.847 52.009Z" fill="#010101"/>
<path d="M125.698 51.494H125.633H125.468H125.347H125.193H124.897C124.855 51.4919 124.814 51.5009 124.777 51.5202C124.741 51.5395 124.71 51.5683 124.688 51.6036C124.651 51.6722 124.625 51.7461 124.611 51.8227C124.611 51.8994 124.611 51.9761 124.611 52.0528C124.563 52.2362 124.5 52.4156 124.425 52.5897C124.285 52.8866 124.086 53.1523 123.841 53.3707C123.596 53.5891 123.309 53.7557 122.997 53.8606C122.924 53.896 122.846 53.9217 122.766 53.9373H122.514C122.482 53.9481 122.447 53.9481 122.415 53.9373H122.228H121.987H121.767C121.709 53.9273 121.649 53.9273 121.591 53.9373C121.537 53.9528 121.48 53.9528 121.427 53.9373L121.031 53.8277C120.911 53.7936 120.793 53.7496 120.68 53.6962C120.334 53.5186 120.03 53.2682 119.79 52.9622C119.55 52.6283 119.365 52.2585 119.241 51.8666C119.205 51.7671 119.179 51.6644 119.164 51.5598C119.164 51.4502 119.164 51.3516 119.087 51.2421C119.081 51.1948 119.081 51.1469 119.087 51.0996C119.098 51.0528 119.098 51.0041 119.087 50.9572C119.077 50.8992 119.077 50.8399 119.087 50.7819C119.099 50.724 119.099 50.6645 119.087 50.6066V50.4751C119.082 50.4205 119.082 50.3654 119.087 50.3108V50.1793C119.087 50.0807 119.087 49.9821 119.087 49.8944C119.076 49.7998 119.076 49.7042 119.087 49.6096C119.092 49.5806 119.092 49.551 119.087 49.5219C119.083 49.4929 119.083 49.4633 119.087 49.4343C119.099 49.3838 119.099 49.3314 119.087 49.2809C119.076 49.2304 119.076 49.178 119.087 49.1275C119.087 48.9851 119.164 48.8536 119.197 48.7331C119.238 48.6065 119.286 48.4821 119.34 48.3606C119.632 47.6835 120.175 47.1455 120.855 46.8596C120.929 46.8276 121.007 46.8055 121.086 46.7938L121.317 46.7391H121.624H122.009H122.371H122.689L123.052 46.8377C123.169 46.8702 123.281 46.922 123.381 46.9911C123.557 47.0946 123.72 47.2198 123.865 47.3636C124.009 47.5035 124.135 47.6619 124.238 47.8347C124.293 47.9318 124.337 48.0347 124.37 48.1415C124.406 48.2416 124.454 48.3372 124.512 48.4263C124.537 48.4594 124.569 48.4871 124.604 48.5078C124.64 48.5285 124.68 48.5418 124.721 48.5468H125.358H125.512C125.512 48.5468 125.578 48.5468 125.6 48.4592C125.621 48.3952 125.621 48.3259 125.6 48.262C125.604 48.2073 125.604 48.1523 125.6 48.0976C125.554 47.9483 125.499 47.8019 125.435 47.6594C125.375 47.532 125.309 47.4076 125.237 47.2869C124.918 46.7908 124.47 46.3896 123.941 46.1255C123.304 45.8217 122.605 45.6716 121.899 45.6873H121.778H121.58H121.394H121.24H121.075L120.768 45.7749C120.666 45.794 120.567 45.8233 120.471 45.8626L120.043 46.0598L119.647 46.3008L119.494 46.4213L119.351 46.5419L119.186 46.6843L119.022 46.8596C118.998 46.9007 118.969 46.9377 118.934 46.9691C118.895 47.0003 118.862 47.0372 118.835 47.0787C118.714 47.254 118.582 47.4512 118.461 47.6594C118.404 47.7583 118.352 47.8607 118.308 47.9662C118.308 48.0757 118.22 48.1962 118.176 48.2948C118.121 48.4168 118.084 48.546 118.066 48.6783L117.967 49.0837C117.957 49.1417 117.957 49.201 117.967 49.259C117.977 49.3096 117.977 49.3617 117.967 49.4124C117.961 49.4816 117.961 49.5513 117.967 49.6205C117.973 49.6862 117.973 49.7521 117.967 49.8178V50.004C117.972 50.0161 117.975 50.0292 117.975 50.0424C117.975 50.0555 117.972 50.0686 117.967 50.0807C117.958 50.1535 117.958 50.2271 117.967 50.2998C117.959 50.369 117.959 50.4389 117.967 50.508V50.749C117.979 50.8253 117.979 50.9028 117.967 50.9791V51.2201C117.972 51.2565 117.972 51.2933 117.967 51.3297C117.956 51.3654 117.956 51.4036 117.967 51.4393C117.967 51.5598 117.967 51.6693 118.044 51.7789C118.063 51.8863 118.089 51.9924 118.121 52.0966C118.298 52.6255 118.562 53.1216 118.901 53.5648C119.235 53.9901 119.674 54.3221 120.175 54.5289C120.326 54.606 120.484 54.6683 120.647 54.7152H120.866H121.086H121.273H121.459H121.998C122.052 54.727 122.108 54.727 122.162 54.7152H122.58C122.616 54.7244 122.653 54.7244 122.689 54.7152H122.986C123.08 54.7036 123.172 54.6816 123.261 54.6494L123.535 54.5618L123.799 54.4632C124.057 54.3474 124.301 54.2002 124.523 54.0249C124.735 53.8517 124.92 53.6487 125.073 53.4223C125.138 53.3237 125.204 53.2251 125.259 53.1265L125.435 52.8197C125.523 52.6623 125.586 52.4923 125.622 52.3158C125.622 52.1405 125.709 51.9542 125.764 51.768C125.781 51.6847 125.781 51.5992 125.764 51.516C125.744 51.505 125.722 51.4976 125.698 51.494Z" fill="#010101"/>
<path d="M134.396 46.1913C134.4 46.1488 134.394 46.1061 134.378 46.0663C134.363 46.0265 134.339 45.9906 134.308 45.9612C134.24 45.9264 134.165 45.9042 134.089 45.8955H133.518H133.397C133.38 45.9002 133.364 45.9086 133.351 45.9199C133.338 45.9313 133.327 45.9454 133.32 45.9612C133.282 46.0107 133.255 46.0673 133.24 46.1275C133.225 46.1878 133.222 46.2505 133.232 46.3118C133.232 46.4652 133.232 46.6076 133.232 46.7391V48.7003C133.232 48.8317 133.232 48.9961 133.232 49.1714C133.239 49.3084 133.209 49.4447 133.144 49.5658C133.099 49.6181 133.037 49.653 132.969 49.6644H132.683H128.828H128.664C128.616 49.6413 128.575 49.6076 128.543 49.5658C128.538 49.5537 128.535 49.5406 128.535 49.5275C128.535 49.5143 128.538 49.5012 128.543 49.4891C128.549 49.4602 128.549 49.4303 128.543 49.4015V49.3028C128.537 49.2629 128.537 49.2223 128.543 49.1823V46.7281C128.543 46.5967 128.543 46.4542 128.543 46.3118C128.555 46.1935 128.519 46.0753 128.444 45.9831C128.444 45.9064 128.29 45.8845 128.125 45.8845H127.609C127.565 45.8887 127.523 45.9026 127.485 45.9254C127.447 45.9481 127.414 45.9791 127.39 46.016C127.346 46.0884 127.327 46.1729 127.335 46.257V54.1236C127.335 54.2441 127.335 54.3646 127.335 54.4742C127.332 54.5187 127.341 54.5631 127.36 54.6034C127.379 54.6436 127.408 54.6783 127.445 54.7042C127.491 54.7413 127.55 54.7608 127.609 54.759H127.84H128.213C128.263 54.7618 128.313 54.7497 128.356 54.7244C128.399 54.699 128.433 54.6615 128.455 54.6166V54.4632V51.4941C128.444 51.3994 128.444 51.3039 128.455 51.2092C128.449 51.1253 128.449 51.0411 128.455 50.9572C128.447 50.8991 128.447 50.8401 128.455 50.7819C128.488 50.7465 128.53 50.7201 128.576 50.7052H128.74H132.881H133.023C133.088 50.7308 133.144 50.7722 133.188 50.8258C133.199 50.8837 133.199 50.9431 133.188 51.0011C133.194 51.0776 133.194 51.1545 133.188 51.2311V53.8168C133.188 53.9592 133.188 54.1126 133.188 54.2879C133.17 54.4256 133.201 54.5652 133.276 54.6823C133.303 54.7137 133.337 54.7381 133.375 54.7534C133.413 54.7687 133.455 54.7744 133.496 54.77H134.012H134.133H134.231C134.267 54.7498 134.296 54.7212 134.317 54.6868C134.338 54.6523 134.35 54.6131 134.352 54.5728C134.352 54.4742 134.352 54.3756 134.352 54.255V46.5857C134.376 46.4554 134.39 46.3236 134.396 46.1913Z" fill="#010101"/>
<path d="M144.401 50.1574C144.392 50.1384 144.388 50.1179 144.388 50.0972C144.388 50.0765 144.392 50.056 144.401 50.0369C144.412 49.9938 144.412 49.9486 144.401 49.9054V49.8287C144.39 49.7671 144.39 49.7041 144.401 49.6425C144.41 49.5844 144.41 49.5252 144.401 49.4672C144.395 49.4272 144.395 49.3866 144.401 49.3467C144.407 49.3067 144.407 49.2661 144.401 49.2262C144.401 49.1275 144.346 49.0399 144.335 48.9522C144.324 48.8646 144.28 48.777 144.258 48.7003C144.236 48.6236 144.258 48.6017 144.258 48.5578C144.263 48.5105 144.263 48.4628 144.258 48.4154C144.192 48.2401 144.126 48.0867 144.06 47.9333L143.972 47.7909L143.906 47.6813C143.905 47.6448 143.905 47.6083 143.906 47.5718L143.764 47.3746C143.764 47.2979 143.665 47.2321 143.621 47.1664C143.597 47.1288 143.568 47.0955 143.533 47.0678L143.445 46.9692C143.353 46.85 143.246 46.7432 143.127 46.6515L142.764 46.3885C142.429 46.1551 142.058 45.9775 141.666 45.8626C141.192 45.7257 140.699 45.6664 140.206 45.6873H140.074H139.887H139.689H139.536H139.382L139.063 45.775L138.767 45.8736C138.366 46.0387 137.995 46.2682 137.669 46.5528C137.346 46.8339 137.068 47.1628 136.845 47.5279C136.757 47.6585 136.683 47.798 136.625 47.9443L136.428 48.4154C136.378 48.5316 136.341 48.6528 136.318 48.777C136.318 48.9084 136.318 49.0399 136.23 49.1714C136.225 49.2224 136.225 49.2738 136.23 49.3248C136.235 49.3721 136.235 49.4199 136.23 49.4672V49.9164V50.0807C136.201 50.1958 136.201 50.3163 136.23 50.4313V50.6943C136.236 50.7232 136.236 50.753 136.23 50.7819C136.219 50.8139 136.219 50.8486 136.23 50.8805C136.241 50.9459 136.241 51.0124 136.23 51.0777C136.224 51.1397 136.224 51.2021 136.23 51.264C136.239 51.2999 136.239 51.3376 136.23 51.3736C136.23 51.3736 136.23 51.3736 136.23 51.4612L136.329 51.8447C136.35 51.9693 136.387 52.0907 136.439 52.2062C136.638 52.7046 136.912 53.1699 137.251 53.5867C137.597 53.9882 138.028 54.3066 138.514 54.518L138.767 54.6166L139.019 54.7152H139.261H139.503H139.667H139.843H140.37C140.425 54.7271 140.481 54.7271 140.535 54.7152H140.952H141.161L141.435 54.6604L141.721 54.5947C142.316 54.4111 142.858 54.088 143.302 53.6525C143.723 53.2122 144.055 52.6951 144.28 52.1295C144.332 52.0057 144.372 51.8773 144.401 51.7461C144.401 51.6146 144.477 51.4722 144.521 51.3407C144.515 51.2751 144.515 51.2091 144.521 51.1435V50.9572C144.534 50.8773 144.534 50.7961 144.521 50.7162C144.51 50.6326 144.51 50.5478 144.521 50.4642V50.3108C144.528 50.2526 144.528 50.1938 144.521 50.1355C144.481 50.1399 144.44 50.1472 144.401 50.1574ZM143.226 50.5628V50.6724V51.0777C143.221 51.1361 143.221 51.1947 143.226 51.253V51.4064L143.127 51.757C143.097 51.8723 143.06 51.9857 143.017 52.0967C142.871 52.5014 142.647 52.8736 142.358 53.1923C142.046 53.4985 141.671 53.7339 141.26 53.8825C141.17 53.928 141.074 53.9577 140.974 53.9702L140.634 54.0359H140.513H140.392H140.074H139.898C139.844 54.0253 139.788 54.0253 139.733 54.0359C139.683 54.0512 139.63 54.0512 139.58 54.0359L139.184 53.9264C139.058 53.8932 138.937 53.8454 138.822 53.7839C138.419 53.5818 138.073 53.2846 137.811 52.9184L137.691 52.7212L137.57 52.5349C137.524 52.4514 137.487 52.3633 137.46 52.272C137.428 52.1824 137.392 52.0947 137.35 52.009C137.313 51.9206 137.283 51.8289 137.262 51.7351C137.247 51.6424 137.225 51.5509 137.196 51.4612C137.186 51.4292 137.186 51.3946 137.196 51.3626C137.201 51.3336 137.201 51.304 137.196 51.275C137.19 51.202 137.19 51.1287 137.196 51.0558C137.209 50.9833 137.209 50.9092 137.196 50.8367V50.7381C137.19 50.7092 137.19 50.6793 137.196 50.6505C137.189 50.5739 137.189 50.4969 137.196 50.4204C137.189 50.3475 137.189 50.2741 137.196 50.2013V50.0807C137.202 50.0481 137.202 50.0148 137.196 49.9821C137.185 49.9465 137.185 49.9082 137.196 49.8726C137.202 49.8326 137.202 49.7921 137.196 49.752C137.192 49.712 137.192 49.6716 137.196 49.6315C137.196 49.5329 137.196 49.4343 137.196 49.3467C137.207 49.2494 137.229 49.1537 137.262 49.0618C137.406 48.6127 137.617 48.1879 137.888 47.8019C138.168 47.4287 138.549 47.1435 138.987 46.9801L139.316 46.8706L139.678 46.7829H139.854H140.019H140.458C140.589 46.7654 140.722 46.7654 140.853 46.7829C141.076 46.8257 141.293 46.8918 141.501 46.9801C141.832 47.1296 142.127 47.346 142.369 47.6156C142.612 47.8887 142.809 48.1996 142.951 48.5359C142.951 48.6455 143.028 48.7441 143.061 48.8427C143.085 48.9582 143.118 49.0718 143.16 49.1823C143.166 49.2516 143.166 49.3212 143.16 49.3905C143.16 49.4672 143.16 49.5439 143.16 49.6096C143.169 49.6492 143.169 49.6906 143.16 49.7301C143.149 49.7697 143.149 49.8111 143.16 49.8507V49.9602C143.166 50.0002 143.166 50.0408 143.16 50.0807V50.1793C143.169 50.2521 143.169 50.3258 143.16 50.3985C143.187 50.4511 143.209 50.5061 143.226 50.5628Z" fill="#010101"/>
<path d="M153.911 50.1573C153.901 50.1178 153.901 50.0763 153.911 50.0368C153.922 49.9937 153.922 49.9484 153.911 49.9053V49.8286C153.906 49.7667 153.906 49.7044 153.911 49.6424C153.916 49.584 153.916 49.5254 153.911 49.4671C153.905 49.4271 153.905 49.3865 153.911 49.3466C153.922 49.3072 153.922 49.2654 153.911 49.226L153.845 48.9521L153.779 48.7001C153.776 48.6527 153.776 48.6051 153.779 48.5577V48.4153C153.713 48.24 153.647 48.0866 153.581 47.9332L153.494 47.7908L153.428 47.6812C153.407 47.6458 153.389 47.6092 153.373 47.5717C153.333 47.5035 153.289 47.4376 153.241 47.3745L153.087 47.1663C153.067 47.1265 153.037 47.0926 152.999 47.0677L152.912 46.9691C152.823 46.8502 152.72 46.7434 152.604 46.6513L152.242 46.3884C151.907 46.155 151.536 45.9774 151.143 45.8625C150.666 45.7255 150.169 45.6663 149.672 45.6872H149.353H149.156H148.969H148.804H148.651L148.332 45.7748L148.036 45.8735C147.636 46.0402 147.265 46.2695 146.937 46.5527C146.614 46.8338 146.337 47.1626 146.114 47.5278C146.018 47.6554 145.94 47.7955 145.883 47.9442C145.883 48.0976 145.762 48.2509 145.696 48.4153C145.642 48.5296 145.605 48.6515 145.587 48.7768C145.587 48.9083 145.532 49.0398 145.499 49.1713C145.488 49.2218 145.488 49.2741 145.499 49.3246C145.509 49.3716 145.509 49.4201 145.499 49.4671V49.9163V50.0806C145.469 50.1957 145.469 50.3162 145.499 50.4312V50.6942C145.51 50.7224 145.51 50.7536 145.499 50.7818C145.494 50.8145 145.494 50.8478 145.499 50.8804C145.51 50.9457 145.51 51.0123 145.499 51.0776C145.487 51.1392 145.487 51.2023 145.499 51.2639C145.509 51.2997 145.509 51.3377 145.499 51.3735C145.496 51.4026 145.496 51.4319 145.499 51.4611C145.542 51.5861 145.575 51.7143 145.598 51.8446C145.624 51.9679 145.661 52.0889 145.707 52.2061C145.911 52.705 146.189 53.1704 146.531 53.5866C146.874 53.9907 147.306 54.3095 147.794 54.5179L148.036 54.6165L148.255 54.7808H148.497H148.749H148.914C148.969 54.7705 149.024 54.7705 149.079 54.7808H149.617C149.671 54.7927 149.727 54.7927 149.782 54.7808H150.199H150.452L150.726 54.726L151.001 54.6603C151.596 54.4768 152.138 54.1537 152.582 53.7181C153.01 53.2813 153.346 52.7635 153.57 52.1952C153.617 52.0695 153.658 51.9415 153.691 51.8117C153.691 51.6802 153.757 51.5378 153.801 51.4063V51.2091C153.791 51.1474 153.791 51.0846 153.801 51.0229C153.807 50.9426 153.807 50.862 153.801 50.7818C153.79 50.6982 153.79 50.6134 153.801 50.5298V50.3764C153.801 50.3764 153.801 50.2778 153.801 50.2011C153.801 50.1244 153.911 50.2011 153.911 50.1573ZM152.725 50.5627V50.6723V51.0776V51.2529C152.735 51.3035 152.735 51.3557 152.725 51.4063C152.725 51.5268 152.659 51.6364 152.637 51.7569C152.607 51.8722 152.57 51.9856 152.527 52.0966C152.378 52.5021 152.151 52.8744 151.857 53.1922C151.564 53.4956 151.208 53.7312 150.814 53.8824C150.721 53.9296 150.621 53.9593 150.517 53.9701L150.188 54.0358H150.067H149.935H149.617H149.452C149.398 54.0252 149.342 54.0252 149.288 54.0358C149.234 54.0507 149.177 54.0507 149.123 54.0358L148.727 53.9262C148.558 53.873 148.398 53.7915 148.255 53.6852C147.851 53.4861 147.503 53.1884 147.245 52.8197C147.201 52.7564 147.16 52.6906 147.124 52.6225L147.003 52.4362C146.959 52.3507 146.918 52.2629 146.882 52.1733C146.854 52.0839 146.821 51.9961 146.784 51.9103C146.741 51.8238 146.712 51.7315 146.696 51.6364L146.63 51.3625C146.62 51.3304 146.62 51.296 146.63 51.2639C146.63 51.2639 146.63 51.2091 146.63 51.1762C146.618 51.1037 146.618 51.0297 146.63 50.9571C146.63 50.8695 146.63 50.8037 146.63 50.738C146.635 50.7053 146.635 50.672 146.63 50.6394V50.5517C146.623 50.4752 146.623 50.3982 146.63 50.3217C146.622 50.2488 146.622 50.1754 146.63 50.1025V49.982C146.641 49.95 146.641 49.9154 146.63 49.8834C146.624 49.8471 146.624 49.8101 146.63 49.7739C146.635 49.7339 146.635 49.6933 146.63 49.6533C146.63 49.6533 146.63 49.5766 146.63 49.5328C146.63 49.489 146.63 49.3356 146.696 49.248C146.706 49.1507 146.728 49.055 146.762 48.9631C146.901 48.5122 147.112 48.0868 147.388 47.7031C147.663 47.3258 148.046 47.0396 148.486 46.8814L148.826 46.7719L149.178 46.6842H149.364H149.529H149.957C150.088 46.6652 150.222 46.6652 150.353 46.6842C150.576 46.7239 150.793 46.7901 151.001 46.8814C151.334 47.0307 151.633 47.247 151.879 47.5169C152.122 47.79 152.319 48.1008 152.461 48.4372C152.461 48.5468 152.538 48.6454 152.56 48.744C152.582 48.8426 152.626 48.9631 152.67 49.0836C152.714 49.2041 152.67 49.2151 152.67 49.2918C152.664 49.3647 152.664 49.438 152.67 49.5109C152.674 49.551 152.674 49.5914 152.67 49.6314C152.659 49.6709 152.659 49.7125 152.67 49.7519C152.664 49.7882 152.664 49.8252 152.67 49.8615V50.0806C152.687 50.1526 152.687 50.2277 152.67 50.2997C152.71 50.3813 152.729 50.4718 152.725 50.5627Z" fill="#010101"/>
<path d="M161.269 54.0796C161.277 54.0362 161.277 53.9916 161.269 53.9482C161.218 53.8799 161.144 53.8329 161.06 53.8167C161.002 53.8052 160.942 53.8052 160.884 53.8167H156.92C156.866 53.8293 156.809 53.8293 156.755 53.8167C156.695 53.7837 156.645 53.7343 156.612 53.6743C156.599 53.5871 156.599 53.4984 156.612 53.4113V46.2569C156.619 46.1629 156.592 46.0697 156.535 45.994C156.506 45.9543 156.463 45.9269 156.415 45.9173C156.349 45.9058 156.282 45.9058 156.217 45.9173H155.69C155.617 45.937 155.551 45.9791 155.503 46.0378C155.484 46.0947 155.484 46.1563 155.503 46.2131C155.498 46.2897 155.498 46.3666 155.503 46.4432V54.4522C155.501 54.5219 155.521 54.5905 155.558 54.6494C155.577 54.6835 155.603 54.7125 155.636 54.7336C155.669 54.7546 155.706 54.7671 155.745 54.7699H156.041H161.071C161.131 54.7908 161.197 54.7908 161.258 54.7699C161.286 54.7558 161.31 54.7357 161.329 54.7111C161.348 54.6864 161.361 54.6579 161.368 54.6274C161.371 54.58 161.371 54.5324 161.368 54.485V54.2988C161.344 54.2219 161.311 54.1483 161.269 54.0796Z" fill="#010101"/>
<path d="M168.978 52.009C168.984 51.9617 168.984 51.9138 168.978 51.8665C168.978 51.7898 168.978 51.7022 168.978 51.6255C168.96 51.5499 168.935 51.4765 168.901 51.4064C168.814 51.2062 168.696 51.0212 168.55 50.8586C168.403 50.7034 168.237 50.5672 168.056 50.4532C167.911 50.3657 167.761 50.2888 167.605 50.2231C167.441 50.1574 167.287 50.0916 167.111 50.0368L166.892 49.9601L166.661 49.9054H166.584H166.496C166.375 49.861 166.25 49.828 166.123 49.8068L165.749 49.7301H165.53H165.299L164.607 49.5438C164.388 49.4945 164.179 49.4054 163.992 49.2809C163.852 49.2088 163.725 49.1123 163.619 48.996C163.516 48.867 163.441 48.7176 163.399 48.5578C163.399 48.503 163.399 48.4263 163.399 48.3496C163.393 48.273 163.393 48.1961 163.399 48.1195C163.399 48.0319 163.399 47.9552 163.399 47.8894C163.411 47.8173 163.433 47.7472 163.465 47.6813C163.528 47.5171 163.634 47.3732 163.773 47.2649C163.906 47.152 164.059 47.063 164.223 47.002C164.568 46.8483 164.944 46.777 165.321 46.7938H165.519C165.584 46.7834 165.651 46.7834 165.716 46.7938H165.815H165.969H166.123C166.368 46.8487 166.6 46.9531 166.804 47.1006C167.077 47.281 167.288 47.5412 167.408 47.8456C167.455 47.9341 167.485 48.0308 167.496 48.1305C167.517 48.2272 167.554 48.3197 167.605 48.4044H167.66C167.692 48.4145 167.727 48.4145 167.759 48.4044H167.858H167.968H168.078H168.363C168.402 48.4068 168.441 48.399 168.475 48.3817C168.51 48.3644 168.539 48.3382 168.561 48.3058C168.581 48.2491 168.581 48.1872 168.561 48.1305C168.572 48.0579 168.572 47.984 168.561 47.9113L168.429 47.4512C168.389 47.3124 168.329 47.1797 168.253 47.0568L168.187 46.9362C168.171 46.8877 168.145 46.843 168.111 46.8048L168.001 46.6733L167.902 46.5528V46.4761C167.888 46.4718 167.875 46.4648 167.863 46.4554C167.852 46.446 167.843 46.4344 167.836 46.4213H167.781L167.649 46.3227L167.506 46.2351C167.204 46.0498 166.874 45.913 166.529 45.8297C166.116 45.7301 165.691 45.6895 165.266 45.7092C165.266 45.7092 165.266 45.7092 165.167 45.7092H165.058H164.838H164.618H164.432H164.245C164.02 45.7639 163.803 45.8448 163.597 45.9502H163.542H163.476C163.26 46.0922 163.054 46.2496 162.861 46.4213C162.672 46.603 162.52 46.8186 162.411 47.0568C162.38 47.1317 162.355 47.2086 162.334 47.2868L162.268 47.5498C162.23 47.6667 162.207 47.7884 162.202 47.9113C162.179 48.0345 162.179 48.1607 162.202 48.2839C162.196 48.3091 162.196 48.3353 162.202 48.3605V48.4482L162.268 48.7221C162.281 48.8076 162.311 48.8896 162.356 48.9631C162.436 49.166 162.564 49.3464 162.729 49.489C162.889 49.6375 163.066 49.7663 163.257 49.8725L163.487 50.004L163.74 50.1026H163.817L164.19 50.2231L164.596 50.3217C164.833 50.3981 165.075 50.4567 165.321 50.497L166.046 50.6613C166.277 50.709 166.504 50.7712 166.727 50.8476C166.939 50.9191 167.139 51.0225 167.32 51.1544C167.551 51.3026 167.729 51.5217 167.825 51.7789C167.83 51.8079 167.83 51.8375 167.825 51.8665C167.821 51.9029 167.821 51.9397 167.825 51.9761C167.837 52.0486 167.837 52.1227 167.825 52.1952C167.837 52.2751 167.837 52.3564 167.825 52.4362C167.825 52.502 167.825 52.5677 167.825 52.6335L167.759 52.8307C167.674 53.0277 167.538 53.1981 167.364 53.3237C167.182 53.4512 166.987 53.5577 166.782 53.6414C166.714 53.6683 166.644 53.6903 166.573 53.7072H166.353C166.353 53.7072 166.298 53.7072 166.277 53.7072H165.826C165.776 53.7185 165.723 53.7185 165.673 53.7072H165.519C165.479 53.6959 165.437 53.6959 165.398 53.7072C165.359 53.7184 165.317 53.7184 165.277 53.7072H165.134H164.937H164.739C164.556 53.6551 164.377 53.5929 164.201 53.5209C164.035 53.4574 163.879 53.3687 163.74 53.258C163.412 52.9927 163.168 52.639 163.037 52.239C163.042 52.1807 163.042 52.1221 163.037 52.0637C163.032 52.0164 163.032 51.9687 163.037 51.9213C163.042 51.8776 163.042 51.8335 163.037 51.7898C163.007 51.7464 162.965 51.7123 162.916 51.6912C162.888 51.6812 162.857 51.6812 162.828 51.6912H162.246C162.207 51.692 162.168 51.7024 162.134 51.7215C162.099 51.7406 162.07 51.7678 162.049 51.8008C162.024 51.8271 162.006 51.8583 161.994 51.8923C161.983 51.9263 161.979 51.9623 161.983 51.998C161.976 52.0855 161.976 52.1734 161.983 52.2609C161.994 52.3041 161.994 52.3493 161.983 52.3924C161.972 52.443 161.972 52.4952 161.983 52.5458L162.114 52.9183C162.158 53.0366 162.213 53.1504 162.279 53.258C162.464 53.574 162.71 53.8497 163.004 54.0687C163.318 54.2943 163.667 54.4681 164.036 54.5837C164.114 54.6157 164.195 54.6378 164.278 54.6494H164.53H164.64H164.75C164.827 54.6608 164.904 54.6608 164.981 54.6494C165.065 54.6386 165.149 54.6386 165.233 54.6494H166.167H166.298H166.595C166.692 54.6391 166.788 54.617 166.881 54.5837L167.144 54.507L167.386 54.4193C167.631 54.3076 167.866 54.1756 168.089 54.0249C168.297 53.8735 168.479 53.6883 168.627 53.4771C168.702 53.3753 168.764 53.2649 168.813 53.1484C168.813 53.0279 168.912 52.9074 168.945 52.7868C168.961 52.7184 168.961 52.6471 168.945 52.5787V52.3705V52.2719C168.94 52.2392 168.94 52.206 168.945 52.1733V51.9213C168.958 51.9497 168.969 51.979 168.978 52.009Z" fill="#010101"/>
</svg>
